<svg width="24" height="24" viewBox="0 0 24 24" fill="none" xmlns="http://www.w3.org/2000/svg">
<path d="M15.5995 7.39953C16.1518 7.39953 16.5995 7.84725 16.5995 8.39953V12.8995C16.5995 13.3503 16.7788 13.7829 17.0976 14.1017C17.4163 14.4204 17.8489 14.5997 18.2997 14.5997C18.7505 14.5997 19.1831 14.4204 19.5019 14.1017C19.8207 13.7829 19.9999 13.3504 19.9999 12.8995V11.9991C19.9997 10.1938 19.3887 8.44167 18.2665 7.02746C17.1442 5.61314 15.5765 4.61946 13.8183 4.2091C12.06 3.79878 10.2143 3.99536 8.58194 4.76672C6.94954 5.53814 5.62541 6.8392 4.82608 8.45812C4.02677 10.0771 3.79944 11.9196 4.1796 13.6847C4.5598 15.4497 5.52595 17.0344 6.92081 18.1808C8.31564 19.327 10.0571 19.9681 11.8622 19.9991C13.6675 20.0302 15.4307 19.4495 16.8642 18.3517C17.3025 18.0161 17.9297 18.0991 18.2655 18.5372C18.6013 18.9757 18.5185 19.6038 18.08 19.9396C16.2881 21.3118 14.0847 22.037 11.828 21.9982C9.5714 21.9594 7.39396 21.1587 5.6503 19.7257C3.90676 18.2927 2.69972 16.3119 2.22452 14.1056C1.74933 11.8993 2.03403 9.59709 3.03312 7.57336C4.03225 5.54959 5.68687 3.92342 7.72745 2.9591C9.76797 1.99482 12.0745 1.74896 14.2724 2.26183C16.4703 2.77476 18.43 4.01635 19.8329 5.78429C21.2358 7.55214 21.9997 9.74231 21.9999 11.9991V12.8995C21.9999 13.8808 21.6098 14.8219 20.9159 15.5157C20.2221 16.2096 19.281 16.5997 18.2997 16.5997C17.3185 16.5997 16.3773 16.2096 15.6835 15.5157C15.5657 15.398 15.4572 15.2727 15.3573 15.1417C14.518 16.0382 13.3249 16.5997 11.9999 16.5997C9.45941 16.5997 7.4003 14.5396 7.4003 11.9991C7.40053 9.45882 9.45954 7.39953 11.9999 7.39953C12.9724 7.39953 13.8741 7.70187 14.6171 8.21691C14.7029 7.75202 15.1098 7.39972 15.5995 7.39953ZM9.4003 11.9991C9.4003 13.4351 10.564 14.5997 11.9999 14.5997C13.4359 14.5997 14.5995 13.4351 14.5995 11.9991C14.5993 10.5634 13.4357 9.39953 11.9999 9.39953C10.5641 9.39953 9.40053 10.5634 9.4003 11.9991Z" fill="currentColor"/>
</svg>
