<svg width="24" height="24" viewBox="0 0 24 24" fill="none" xmlns="http://www.w3.org/2000/svg">
<path d="M20 6.77979C20 6.25936 19.9989 5.92916 19.9785 5.6792C19.959 5.44089 19.9274 5.36448 19.9131 5.33643C19.8364 5.18598 19.7139 5.0635 19.5635 4.98682C19.5354 4.97252 19.459 4.94086 19.2207 4.92139C18.9707 4.90097 18.6405 4.8999 18.1201 4.8999H17.7598C16.7353 4.8999 16.0267 4.90086 15.4766 4.9458C14.9386 4.98978 14.6404 5.07083 14.4199 5.18311C13.9307 5.43238 13.5325 5.8306 13.2832 6.31982C13.1709 6.54031 13.0899 6.83851 13.0459 7.37646C13.0234 7.6515 13.0117 7.96647 13.0059 8.34033L13 9.65967V17.2954C13.4199 16.9863 13.8896 16.75 14.3896 16.5981C15.0768 16.3895 15.818 16.3999 16.8828 16.3999H18.1201C18.6405 16.3999 18.9707 16.3988 19.2207 16.3784C19.459 16.3589 19.5354 16.3273 19.5635 16.313C19.7139 16.2363 19.8364 16.1138 19.9131 15.9634C19.9274 15.9353 19.959 15.8589 19.9785 15.6206C19.9989 15.3706 20 15.0404 20 14.52V6.77979ZM4 14.52C4 15.0404 4.00107 15.3706 4.02148 15.6206C4.04096 15.8589 4.07262 15.9353 4.08691 15.9634C4.1636 16.1138 4.28608 16.2363 4.43652 16.313C4.46458 16.3273 4.54098 16.3589 4.7793 16.3784C5.02926 16.3988 5.35946 16.3999 5.87988 16.3999H7.11719C8.18198 16.3999 8.9232 16.3895 9.61035 16.5981C10.1104 16.75 10.5801 16.9863 11 17.2954V9.65967C11 8.6352 10.999 7.92656 10.9541 7.37646C10.9101 6.83851 10.8291 6.54031 10.7168 6.31982C10.4675 5.8306 10.0693 5.43238 9.58008 5.18311C9.35959 5.07083 9.0614 4.98978 8.52344 4.9458C7.97334 4.90086 7.2647 4.8999 6.24023 4.8999H5.87988C5.35946 4.8999 5.02926 4.90097 4.7793 4.92139C4.54098 4.94086 4.46458 4.97252 4.43652 4.98682C4.28608 5.0635 4.1636 5.18598 4.08691 5.33643C4.07262 5.36448 4.04096 5.44089 4.02148 5.6792C4.00107 5.92916 4 6.25936 4 6.77979V14.52ZM22 14.52C22 15.0075 22.0003 15.4334 21.9717 15.7837C21.9421 16.1456 21.8761 16.5137 21.6943 16.8706C21.4259 17.3975 20.9976 17.8258 20.4707 18.0942C20.1138 18.276 19.7457 18.342 19.3838 18.3716C19.0335 18.4002 18.6076 18.3999 18.1201 18.3999H16.8828C15.6935 18.3999 15.3066 18.4102 14.9707 18.5122C14.6438 18.6115 14.3401 18.7748 14.0762 18.9917C13.805 19.2146 13.5815 19.5297 12.9219 20.519L12.832 20.6548C12.6466 20.9329 12.3343 21.1001 12 21.1001C11.6657 21.1001 11.3534 20.9329 11.168 20.6548L11.0781 20.519C10.4185 19.5297 10.195 19.2146 9.92383 18.9917C9.65989 18.7748 9.35617 18.6115 9.0293 18.5122C8.69341 18.4102 8.30651 18.3999 7.11719 18.3999H5.87988C5.39239 18.3999 4.9665 18.4002 4.61621 18.3716C4.25433 18.342 3.88618 18.276 3.5293 18.0942C3.00244 17.8258 2.57411 17.3975 2.30566 16.8706C2.12386 16.5137 2.0579 16.1456 2.02832 15.7837C1.9997 15.4334 2 15.0075 2 14.52V6.77979C2 6.29229 1.9997 5.86641 2.02832 5.51611C2.0579 5.15423 2.12386 4.78608 2.30566 4.4292C2.57411 3.90235 3.00244 3.47401 3.5293 3.20557C3.88618 3.02377 4.25433 2.9578 4.61621 2.92822C4.9665 2.8996 5.39239 2.8999 5.87988 2.8999H6.24023C7.23155 2.8999 8.03518 2.89952 8.68555 2.95264C9.34761 3.00673 9.93883 3.12097 10.4883 3.40088C11.079 3.70187 11.5921 4.12746 12 4.64111C12.4079 4.12746 12.921 3.70187 13.5117 3.40088C14.0612 3.12097 14.6524 3.00673 15.3145 2.95264C15.9648 2.89952 16.7684 2.8999 17.7598 2.8999H18.1201C18.6076 2.8999 19.0335 2.8996 19.3838 2.92822C19.7457 2.9578 20.1138 3.02377 20.4707 3.20557C20.9976 3.47401 21.4259 3.90235 21.6943 4.4292C21.8761 4.78608 21.9421 5.15423 21.9717 5.51611C22.0003 5.86641 22 6.29229 22 6.77979V14.52Z" fill="#FF00CD"/>
</svg>
