<svg width="24" height="24" viewBox="0 0 24 24" fill="none" xmlns="http://www.w3.org/2000/svg">
<path d="M17.2725 2C18.7787 2 20 3.22131 20 4.72754V19.2725C20 20.7787 18.7787 22 17.2725 22H7.5C5.65938 22 4.15173 20.5791 4.01172 18.7744C4.01063 18.7608 4.00972 18.7471 4.00879 18.7334C4.00371 18.6562 4 18.5785 4 18.5V5.63672C4 3.62841 5.62841 2 7.63672 2H17.2725ZM7.5 17C6.67157 17 6 17.6716 6 18.5C6 19.3284 6.67157 20 7.5 20H17.2725C17.6741 20 18 19.6741 18 19.2725V17H7.5Z" fill="currentColor"/>
</svg>
