<svg width="24" height="24" viewBox="0 0 24 24" fill="none" xmlns="http://www.w3.org/2000/svg">
<path d="M12.1767 6.10927C11.6848 5.62487 10.8935 5.63116 10.4091 6.12294L5.48427 11.1229C5.0026 11.6122 5.00563 12.3982 5.49111 12.8837L10.4911 17.8837C10.9793 18.3718 11.7705 18.3718 12.2587 17.8837C12.7468 17.3955 12.7468 16.6043 12.2587 16.1161L8.13662 11.9931L12.1903 7.87685C12.6744 7.385 12.6683 6.59361 12.1767 6.10927Z" fill="currentColor"/>
<path d="M18.4267 6.10927C17.9348 5.62487 17.1435 5.63116 16.6591 6.12294L11.7343 11.1229C11.2526 11.6122 11.2556 12.3982 11.7411 12.8837L16.7411 17.8837C17.2293 18.3718 18.0205 18.3718 18.5087 17.8837C18.9968 17.3955 18.9968 16.6043 18.5087 16.1161L14.3866 11.9931L18.4403 7.87685C18.9244 7.385 18.9183 6.59361 18.4267 6.10927Z" fill="currentColor"/>
</svg>
