<svg width="24" height="24" viewBox="0 0 24 24" fill="none" xmlns="http://www.w3.org/2000/svg">
<path d="M12 2C17.5228 2 21.9999 6.47724 22 12C21.9999 17.5227 17.5228 22 12 22C6.47732 21.9999 2.00013 17.5227 2 12C2.00011 6.47731 6.47731 2.00011 12 2ZM16.7295 8.81641C16.3518 8.41365 15.7193 8.39297 15.3164 8.77051L10.666 13.1289L8.68359 11.2705C8.28067 10.893 7.64815 10.9136 7.27051 11.3164C6.89309 11.7193 6.91369 12.3518 7.31641 12.7295L9.98242 15.2295C10.367 15.5901 10.9659 15.59 11.3506 15.2295L16.6836 10.2295C17.0865 9.85181 17.1071 9.21933 16.7295 8.81641Z" fill="currentColor"/>
</svg>
