<svg width="24" height="24" viewBox="0 0 24 24" fill="none" xmlns="http://www.w3.org/2000/svg">
<path d="M14.9443 2.00977L14.75 2H9.35059C8.33503 2 7.50745 2.79726 7.45508 3.7998H6.65039C5.90803 3.79986 5.19592 4.09529 4.6709 4.62012C4.1459 5.14512 3.84973 5.85716 3.84961 6.59961V19.2002L3.86426 19.4766C3.9279 20.1175 4.21144 20.7202 4.6709 21.1797C5.19593 21.7046 5.90796 21.9999 6.65039 22H17.4502C18.1926 21.9999 18.9057 21.7047 19.4307 21.1797C19.9554 20.6547 20.2509 19.9424 20.251 19.2002V17.3994C20.2506 16.8477 19.8026 16.3999 19.251 16.3994C18.6989 16.3994 18.2513 16.8474 18.251 17.3994V19.2002C18.2509 19.412 18.1662 19.6157 18.0166 19.7656C17.8667 19.9155 17.6622 19.9999 17.4502 20H6.65039C6.43839 19.9999 6.23492 19.9155 6.08496 19.7656C5.95378 19.6344 5.87276 19.4623 5.85449 19.2793L5.85059 19.2002V6.59961C5.8507 6.38759 5.93504 6.1841 6.08496 6.03418C6.23491 5.88443 6.43846 5.79986 6.65039 5.7998H7.45508L7.45996 5.89453C7.55738 6.85249 8.36692 7.59961 9.35059 7.59961H14.75C15.7658 7.59961 16.5935 6.80267 16.6455 5.7998H17.4502L17.5293 5.80371C17.7122 5.82194 17.8844 5.90309 18.0156 6.03418C18.1655 6.18409 18.2499 6.38765 18.25 6.59961V10.2002C18.2502 10.7522 18.698 11.2 19.25 11.2002C19.8019 11.1999 20.2498 10.7521 20.25 10.2002V6.59961C20.2499 5.85736 19.9554 5.14508 19.4307 4.62012C18.9714 4.16086 18.3682 3.87729 17.7275 3.81348L17.4502 3.7998H16.6455C16.5965 2.86195 15.8696 2.10367 14.9443 2.00977ZM9.4502 5.59961V4H14.6504V5.59961H9.4502Z" fill="currentColor"/>
<path d="M14.042 9.49316C14.4324 9.10273 15.0655 9.10291 15.4561 9.49316C15.8466 9.88369 15.8466 10.5167 15.4561 10.9072L13.5625 12.7998H20.1504L20.2529 12.8047C20.7568 12.8562 21.1503 13.2824 21.1504 13.7998C21.1504 14.3173 20.7568 14.7434 20.2529 14.7949L20.1504 14.7998H13.5625L15.4561 16.6934C15.8466 17.0839 15.8466 17.7169 15.4561 18.1074C15.0655 18.4974 14.4323 18.4978 14.042 18.1074L10.4424 14.5068C10.3506 14.4149 10.2762 14.3054 10.2256 14.1836C10.2187 14.167 10.214 14.1497 10.208 14.1328C10.182 14.0591 10.1624 13.9819 10.1543 13.9014C10.1346 13.7073 10.1722 13.5086 10.2656 13.332C10.2767 13.3112 10.2893 13.2914 10.3018 13.2715C10.3332 13.2211 10.3698 13.1733 10.4111 13.1279C10.4217 13.1163 10.4313 13.1039 10.4424 13.0928L14.042 9.49316Z" fill="currentColor"/>
</svg>
