<svg width="24" height="24" viewBox="0 0 24 24" fill="none" xmlns="http://www.w3.org/2000/svg">
<path d="M11.207 3.93189C13.0794 2.05129 16.1223 2.0446 18.0029 3.91724L17.4394 4.48267L18.0038 3.91822C19.8203 5.73466 19.8088 8.68326 17.9784 10.4856L11.7197 16.6487C10.6104 17.7407 8.82725 17.7336 7.72649 16.6331C6.61986 15.5263 6.61995 13.7311 7.72649 12.6243L12.8896 7.46119C13.28 7.0711 13.9132 7.07108 14.3036 7.46119C14.694 7.8516 14.6938 8.48471 14.3036 8.87525L9.14055 14.0383C8.81506 14.3641 8.81497 14.8933 9.14055 15.219C9.46458 15.5428 9.98988 15.5443 10.3163 15.2229L16.5751 9.0608C17.614 8.03799 17.621 6.3645 16.5907 5.33326C15.4928 4.24078 13.7168 4.24525 12.624 5.34302L6.53997 11.4544C4.79469 13.208 4.79749 16.0436 6.5468 17.7932C8.29923 19.5457 11.1409 19.5454 12.8935 17.7932L16.1191 14.5667C16.5095 14.1765 17.1437 14.1766 17.5341 14.5667C17.9245 14.9571 17.9243 15.5912 17.5341 15.9817L14.3075 19.2073C11.7739 21.7405 7.66622 21.7408 5.13274 19.2073C2.6036 16.6778 2.59958 12.5784 5.12297 10.0432L11.207 3.93189Z" fill="currentColor"/>
</svg>
