<svg width="24" height="24" viewBox="0 0 24 24" fill="none" xmlns="http://www.w3.org/2000/svg">
<path d="M14.2998 5.5C14.8434 5.5 15.3116 5.49893 15.6953 5.53027C16.0906 5.56259 16.484 5.6344 16.8623 5.82715C17.4265 6.11472 17.8853 6.57348 18.1729 7.1377C18.3656 7.51599 18.4374 7.90943 18.4697 8.30469C18.5011 8.68836 18.5 9.15665 18.5 9.7002V17.7998C18.5 18.3434 18.5011 18.8116 18.4697 19.1953C18.4374 19.5906 18.3656 19.984 18.1729 20.3623C17.8853 20.9265 17.4265 21.3853 16.8623 21.6729C16.484 21.8656 16.0906 21.9374 15.6953 21.9697C15.3116 22.0011 14.8434 22 14.2998 22H6.2002C5.65665 22 5.18836 22.0011 4.80469 21.9697C4.40944 21.9374 4.01599 21.8656 3.6377 21.6729C3.07348 21.3853 2.61473 20.9265 2.32715 20.3623C2.1344 19.984 2.06259 19.5906 2.03028 19.1953C1.99893 18.8116 2 18.3434 2 17.7998V9.7002C2 9.15665 1.99893 8.68836 2.03028 8.30469C2.06259 7.90943 2.1344 7.51599 2.32715 7.1377C2.61473 6.57347 3.07348 6.11472 3.6377 5.82715C4.01599 5.6344 4.40944 5.56259 4.80469 5.53027C5.18836 5.49893 5.65665 5.5 6.2002 5.5H14.2998Z" fill="currentColor"/>
<path d="M14.5996 2C15.7032 2 16.5914 1.99903 17.3086 2.05762C18.0373 2.11716 18.6773 2.24327 19.2695 2.54492C20.2103 3.02429 20.9757 3.78966 21.4551 4.73047C21.7567 5.32266 21.8828 5.9627 21.9424 6.69141C22.001 7.40857 22 8.29681 22 9.40039V16.5C22 17.0523 21.5523 17.5 21 17.5C20.4477 17.5 20 17.0523 20 16.5V9.40039C20 8.26396 19.9996 7.47129 19.9492 6.85449C19.8998 6.24933 19.807 5.90105 19.6729 5.6377C19.3853 5.07347 18.9265 4.61472 18.3623 4.32715C18.099 4.19296 17.7507 4.10023 17.1455 4.05078C16.5287 4.00041 15.736 4 14.5996 4H7.5C6.94772 4 6.5 3.55228 6.5 3C6.50001 2.44772 6.94772 2 7.5 2H14.5996Z" fill="currentColor"/>
</svg>
