<svg width="24" height="24" viewBox="0 0 24 24" fill="none" xmlns="http://www.w3.org/2000/svg">
<path d="M9.2998 11C9.85209 11 10.2998 11.4477 10.2998 12V13.7002H12C12.5523 13.7002 13 14.1479 13 14.7002C12.9999 15.2524 12.5522 15.7002 12 15.7002H10.2998V17.4004C10.2996 17.9525 9.85196 18.4004 9.2998 18.4004C8.74776 18.4003 8.30002 17.9524 8.2998 17.4004V15.7002H6.59961C6.04759 15.7 5.59974 15.2522 5.59961 14.7002C5.59961 14.148 6.0475 13.7004 6.59961 13.7002H8.2998V12C8.2998 11.4478 8.74763 11.0001 9.2998 11Z" fill="#FF00CD"/>
<path d="M13.8008 7.39941C15.3468 7.39978 16.5995 8.65412 16.5996 10.2002V19.2002L16.585 19.4854C16.4417 20.8974 15.2496 21.9989 13.7998 21.999H4.7998C3.25363 21.9988 2 20.7455 2 19.1992V10.1992C2.00035 8.74982 3.10203 7.55748 4.51367 7.41406L4.80078 7.39941H13.8008ZM4.71777 9.40332C4.31481 9.44447 4.00035 9.78547 4 10.1992V19.1992C4 19.6409 4.3582 19.9988 4.7998 19.999H13.7998C14.2139 19.9989 14.5547 19.6846 14.5957 19.2812L14.5996 19.1992V10.1992C14.5992 9.75777 14.2413 9.39952 13.7998 9.39941H4.7998L4.71777 9.40332Z" fill="#FF00CD"/>
<path d="M19.2002 2C20.7423 2.00011 21.9999 3.25767 22 4.7998V13.7998L21.9854 14.0859C21.8414 15.4947 20.6459 16.5995 19.2002 16.5996C18.6479 16.5996 18.2002 16.1519 18.2002 15.5996C18.2004 15.0475 18.648 14.5996 19.2002 14.5996C19.6106 14.5995 19.9548 14.2814 19.9961 13.8809L20 13.7998V4.7998C19.9999 4.36224 19.6378 4.00011 19.2002 4H10.2002L10.1191 4.00391C9.7186 4.04517 9.40049 4.38944 9.40039 4.7998C9.40039 5.35196 8.9525 5.79959 8.40039 5.7998C7.84811 5.7998 7.40039 5.35209 7.40039 4.7998C7.40049 3.35412 8.50531 2.15863 9.91406 2.01465L10.2002 2H19.2002Z" fill="#FF00CD"/>
</svg>
