<svg width="24" height="24" viewBox="0 0 24 24" fill="none" xmlns="http://www.w3.org/2000/svg">
<path d="M13 15.7998C13.5522 15.7998 13.9999 16.2476 14 16.7998C14 17.3521 13.5523 17.7998 13 17.7998H9.00001C8.44772 17.7998 8.00001 17.3521 8.00001 16.7998C8.00014 16.2476 8.44781 15.7998 9.00001 15.7998H13Z" fill="currentColor"/>
<path d="M15 11.6006C15.5523 11.6006 16 12.0483 16 12.6006C15.9997 13.1527 15.5521 13.6006 15 13.6006H9.00001C8.44788 13.6006 8.00027 13.1527 8.00001 12.6006C8.00001 12.0483 8.44772 11.6006 9.00001 11.6006H15Z" fill="currentColor"/>
<path d="M13.4365 2.00001C13.6712 2.00251 13.9364 2.01779 14.1963 2.09669L14.3516 2.15235L14.5 2.22266C14.7395 2.35063 14.9378 2.52731 15.1055 2.69141L19.3086 6.89454C19.5055 7.09564 19.7202 7.34104 19.8477 7.64844C19.9751 7.95603 19.997 8.28195 20 8.56348V17C20 17.9145 20.0022 18.7014 19.918 19.3281C19.8298 19.9835 19.6307 20.6115 19.1211 21.1211C18.6115 21.6307 17.9835 21.8298 17.3281 21.918C16.7014 22.0022 15.9145 22 15 22H9.00001C8.08547 22 7.29863 22.0022 6.67188 21.918C6.01648 21.8298 5.38849 21.6307 4.87891 21.1211C4.36934 20.6115 4.17019 19.9835 4.08204 19.3281C3.99777 18.7014 4.00001 17.9145 4.00001 17V7.00001C4.00001 6.08547 3.99777 5.29863 4.08204 4.67188C4.17019 4.01648 4.36933 3.38849 4.87891 2.87891C5.38849 2.36933 6.01648 2.17019 6.67188 2.08204C7.29863 1.99777 8.08547 2.00001 9.00001 2.00001H13.4365ZM9.00001 4.00001C8.02893 4.00001 7.40099 4.00228 6.93848 4.06446C6.50494 4.12278 6.36908 4.21687 6.29297 4.29297C6.21687 4.36908 6.12278 4.50494 6.06446 4.93848C6.00228 5.40099 6.00001 6.02893 6.00001 7.00001V17C6.00001 17.9711 6.00228 18.599 6.06446 19.0615C6.12277 19.4951 6.21687 19.6309 6.29297 19.707C6.36908 19.7831 6.50495 19.8772 6.93848 19.9356C7.40099 19.9977 8.02893 20 9.00001 20H15C15.9711 20 16.599 19.9977 17.0615 19.9356C17.4951 19.8772 17.6309 19.7831 17.707 19.707C17.7831 19.6309 17.8772 19.4951 17.9356 19.0615C17.9977 18.599 18 17.9711 18 17V10H15C14.5569 10 14.124 10.0018 13.7695 9.95411C13.3863 9.90259 12.9492 9.77728 12.5859 9.41407C12.2227 9.05085 12.0974 8.61367 12.0459 8.23047C11.9983 7.87604 12 7.44314 12 7.00001V4.00001H9.00001ZM14 7.00001C14 7.4995 14.0018 7.77369 14.0273 7.96387C14.0277 7.96613 14.028 7.96854 14.0283 7.97071C14.0308 7.97106 14.0335 7.97231 14.0361 7.97266C14.2263 7.99821 14.5005 8.00001 15 8.00001H17.5859L14 4.41407V7.00001Z" fill="currentColor"/>
</svg>
