<svg width="24" height="24" viewBox="0 0 24 24" fill="none" xmlns="http://www.w3.org/2000/svg">
<path d="M9.64062 3C10.7477 3 11.7803 3.55787 12.3877 4.4834L13.2842 5.84863C13.5219 6.21061 13.9263 6.42871 14.3594 6.42871H18.7139C20.5284 6.42871 21.9998 7.89941 22 9.71387V17.7139C22 19.5285 20.5285 21 18.7139 21H5.28613C3.47148 21 2 19.5285 2 17.7139V6.28613C2 4.47148 3.47148 3 5.28613 3H9.64062ZM14.25 8.42871H4V17.7139C4 18.4239 4.57605 19 5.28613 19H18.7139C19.4239 19 20 18.4239 20 17.7139V9.71387C19.9998 9.00398 19.4238 8.42871 18.7139 8.42871H14.3594C14.3228 8.42871 14.2864 8.42602 14.25 8.4248V8.42871ZM5.28613 5C4.57605 5 4 5.57605 4 6.28613V6.42871H11.2734L10.7158 5.58008C10.4781 5.21805 10.0737 5 9.64062 5H5.28613Z" fill="currentColor"/>
</svg>
