<svg width="24" height="24" viewBox="0 0 24 24" fill="none" xmlns="http://www.w3.org/2000/svg">
<path d="M10 11.5C10.5523 11.5 11 11.9477 11 12.5V13.5C11 14.0523 10.5523 14.5 10 14.5C9.44772 14.5 9 14.0523 9 13.5V12.5C9 11.9477 9.44772 11.5 10 11.5Z" fill="#FF00CD"/>
<path d="M10 7.5C10.5523 7.5 11 7.94772 11 8.5V9.5C11 10.0523 10.5523 10.5 10 10.5C9.44772 10.5 9 10.0523 9 9.5V8.5C9 7.94772 9.44772 7.5 10 7.5Z" fill="#FF00CD"/>
<path fill-rule="evenodd" clip-rule="evenodd" d="M13.1719 2C13.9674 2.00008 14.7304 2.31637 15.293 2.87891L19.1211 6.70703C19.6836 7.26957 19.9999 8.03258 20 8.82812V19C20 20.6569 18.6569 22 17 22H7C5.34315 22 4 20.6569 4 19V5C4 3.34315 5.34315 2 7 2H13.1719ZM7 4C6.44772 4 6 4.44772 6 5V19C6 19.5523 6.44772 20 7 20H17C17.5523 20 18 19.5523 18 19V8.82812C17.9999 8.56302 17.8945 8.30856 17.707 8.12109L13.8789 4.29297C13.6914 4.1055 13.437 4.00008 13.1719 4H11V5.5C11 6.05228 10.5523 6.5 10 6.5C9.44772 6.5 9 6.05228 9 5.5V4H7Z" fill="#FF00CD"/>
</svg>
