<svg width="24" height="24" viewBox="0 0 24 24" fill="none" xmlns="http://www.w3.org/2000/svg">
<path d="M7.0498 11.9004C7.42858 11.9004 7.77494 12.1143 7.94434 12.4531L8.65039 13.8652C8.90614 14.3767 8.97959 14.5124 9.06641 14.625C9.15558 14.7407 9.25932 14.8444 9.375 14.9336C9.48765 15.0204 9.62327 15.0939 10.1348 15.3496L11.5469 16.0557C11.8857 16.2251 12.0996 16.5714 12.0996 16.9502C12.0995 17.3289 11.8856 17.6754 11.5469 17.8447L10.1348 18.5508C9.62383 18.8063 9.48758 18.8791 9.375 18.9658C9.25941 19.0549 9.15553 19.1589 9.06641 19.2744C8.97955 19.3871 8.90632 19.5233 8.65039 20.0352L7.94434 21.4473C7.77493 21.786 7.42855 22 7.0498 22C6.67111 21.9999 6.32464 21.786 6.15527 21.4473L5.44922 20.0352C5.19335 19.5234 5.12103 19.3871 5.03418 19.2744C4.94501 19.1587 4.84126 19.055 4.72559 18.9658C4.61291 18.879 4.47658 18.8067 3.96484 18.5508L2.55273 17.8447C2.21401 17.6754 2.00007 17.3289 2 16.9502C2 16.5715 2.214 16.2251 2.55273 16.0557L3.96484 15.3496C4.47671 15.0937 4.6129 15.0205 4.72559 14.9336C4.84115 14.8445 4.94508 14.7406 5.03418 14.625C5.12089 14.5124 5.19374 14.3762 5.44922 13.8652L6.15527 12.4531L6.22754 12.332C6.41244 12.0642 6.71846 11.9005 7.0498 11.9004ZM7.0498 15.126C6.90919 15.4 6.78184 15.6343 6.61816 15.8467C6.42413 16.0984 6.19799 16.3235 5.94629 16.5176C5.73383 16.6813 5.49979 16.8095 5.22559 16.9502C5.49965 17.0908 5.73391 17.2182 5.94629 17.3818C6.19807 17.5759 6.42408 17.8019 6.61816 18.0537C6.78169 18.2659 6.90931 18.4997 7.0498 18.7734C7.19036 18.4996 7.3188 18.266 7.48242 18.0537C7.67646 17.802 7.90162 17.5759 8.15332 17.3818C8.36546 17.2183 8.59938 17.0907 8.87305 16.9502C8.59931 16.8097 8.3655 16.6811 8.15332 16.5176C7.90181 16.3237 7.67634 16.0982 7.48242 15.8467C7.31871 15.6343 7.19045 15.4 7.0498 15.126ZM14.7002 2C15.1138 2.00008 15.4852 2.2546 15.6338 2.64062L16.6943 5.39941C16.9664 6.10677 17.0461 6.29557 17.1533 6.44629C17.2634 6.60113 17.3989 6.73657 17.5537 6.84668C17.7044 6.95385 17.8932 7.0336 18.6006 7.30566L21.3594 8.36621C21.7454 8.51477 21.9999 8.88618 22 9.2998C22 9.71346 21.7454 10.0848 21.3594 10.2334L18.6006 11.2939C17.8931 11.5661 17.7044 11.6467 17.5537 11.7539C17.399 11.864 17.2634 11.9995 17.1533 12.1543C17.0462 12.305 16.9663 12.494 16.6943 13.2012L15.6338 15.959C15.4853 16.3451 15.1139 16.5995 14.7002 16.5996C14.2864 16.5996 13.9151 16.3452 13.7666 15.959L12.7061 13.2012C12.4339 12.4936 12.3533 12.305 12.2461 12.1543C12.136 11.9994 12.0006 11.864 11.8457 11.7539C11.695 11.6467 11.5064 11.5661 10.7988 11.2939L8.04102 10.2334C7.65482 10.0849 7.40039 9.71358 7.40039 9.2998C7.40047 8.88611 7.65488 8.51472 8.04102 8.36621L10.7988 7.30566C11.506 7.03367 11.695 6.95375 11.8457 6.84668C12.0005 6.73663 12.136 6.60103 12.2461 6.44629C12.3533 6.29556 12.4339 6.10688 12.7061 5.39941L13.7666 2.64062L13.832 2.50293C14.0082 2.19519 14.338 2 14.7002 2ZM14.5723 6.11719C14.3369 6.72904 14.1634 7.20027 13.876 7.60449C13.6363 7.94158 13.342 8.23688 13.0049 8.47656C12.6006 8.76398 12.1286 8.93747 11.5166 9.17285L11.1846 9.2998L11.5166 9.42773C12.1287 9.66315 12.6006 9.83652 13.0049 10.124C13.3419 10.3637 13.6363 10.6581 13.876 10.9951C14.1635 11.3994 14.3368 11.8713 14.5723 12.4834L14.6992 12.8145L14.8271 12.4834C15.0625 11.8714 15.236 11.3994 15.5234 10.9951C15.7631 10.658 16.0584 10.3637 16.3955 10.124C16.7997 9.83664 17.271 9.66306 17.8828 9.42773L18.2139 9.2998L17.8828 9.17285C17.271 8.93754 16.7997 8.76385 16.3955 8.47656C16.0584 8.23688 15.7631 7.94158 15.5234 7.60449C15.2361 7.20029 15.0625 6.729 14.8271 6.11719L14.6992 5.78516L14.5723 6.11719Z" fill="currentColor"/>
</svg>
