<svg width="24" height="24" viewBox="0 0 24 24" fill="none" xmlns="http://www.w3.org/2000/svg">
<path d="M7.0498 11.6982C7.42858 11.6982 7.77494 11.9122 7.94434 12.251L8.65039 13.6631C8.90614 14.1746 8.97959 14.3102 9.06641 14.4229C9.15558 14.5385 9.25932 14.6423 9.375 14.7314C9.48765 14.8183 9.62327 14.8917 10.1348 15.1475L11.5469 15.8535C11.8857 16.0229 12.0996 16.3693 12.0996 16.748C12.0995 17.1267 11.8856 17.4732 11.5469 17.6426L10.1348 18.3486C9.62383 18.6041 9.48758 18.677 9.375 18.7637C9.25941 18.8528 9.15553 18.9567 9.06641 19.0723C8.97955 19.1849 8.90632 19.3211 8.65039 19.833L7.94434 21.2451C7.77493 21.5839 7.42855 21.7979 7.0498 21.7979C6.67111 21.7978 6.32464 21.5838 6.15527 21.2451L5.44922 19.833C5.19335 19.3213 5.12103 19.1849 5.03418 19.0723C4.94501 18.9566 4.84126 18.8528 4.72559 18.7637C4.61291 18.6768 4.47658 18.6045 3.96484 18.3486L2.55273 17.6426C2.21401 17.4732 2.00007 17.1267 2 16.748C2 16.3693 2.214 16.0229 2.55273 15.8535L3.96484 15.1475C4.47671 14.8915 4.6129 14.8183 4.72559 14.7314C4.84115 14.6423 4.94508 14.5384 5.03418 14.4229C5.12089 14.3103 5.19374 14.174 5.44922 13.6631L6.15527 12.251L6.22754 12.1299C6.41244 11.862 6.71846 11.6983 7.0498 11.6982Z" fill="currentColor"/>
<path d="M14.7002 1.79785C15.1138 1.79793 15.4852 2.05246 15.6338 2.43848L16.6943 5.19727C16.9664 5.90462 17.0461 6.09342 17.1533 6.24414C17.2634 6.39898 17.3989 6.53442 17.5537 6.64453C17.7044 6.7517 17.8932 6.83145 18.6006 7.10352L21.3594 8.16406C21.7454 8.31262 21.9999 8.68403 22 9.09766C22 9.51131 21.7454 9.88263 21.3594 10.0312L18.6006 11.0918C17.8931 11.3639 17.7044 11.4446 17.5537 11.5518C17.399 11.6618 17.2634 11.7974 17.1533 11.9521C17.0462 12.1028 16.9663 12.2918 16.6943 12.999L15.6338 15.7568C15.4853 16.143 15.1139 16.3974 14.7002 16.3975C14.2864 16.3975 13.9151 16.143 13.7666 15.7568L12.7061 12.999C12.4339 12.2914 12.3533 12.1029 12.2461 11.9521C12.136 11.7973 12.0006 11.6619 11.8457 11.5518C11.695 11.4446 11.5064 11.364 10.7988 11.0918L8.04102 10.0312C7.65482 9.88271 7.40039 9.51143 7.40039 9.09766C7.40047 8.68396 7.65488 8.31257 8.04102 8.16406L10.7988 7.10352C11.506 6.83152 11.695 6.7516 11.8457 6.64453C12.0005 6.53448 12.136 6.39888 12.2461 6.24414C12.3533 6.09341 12.4339 5.90473 12.7061 5.19727L13.7666 2.43848L13.832 2.30078C14.0082 1.99304 14.338 1.79785 14.7002 1.79785Z" fill="currentColor"/>
</svg>
