<svg width="24" height="24" viewBox="0 0 24 24" fill="none" xmlns="http://www.w3.org/2000/svg">
<path d="M12 2C17.5228 2 22 6.47715 22 12C22 17.5228 17.5228 22 12 22C6.47715 22 2 17.5228 2 12C2 6.47715 6.47715 2 12 2ZM12 10.5C11.4477 10.5 11 10.9477 11 11.5V16C11 16.5523 11.4477 17 12 17C12.5523 17 13 16.5523 13 16V11.5C13 10.9477 12.5523 10.5 12 10.5ZM12 7C11.9512 7 11.9033 7.004 11.8564 7.01074C11.8091 7.01755 11.7627 7.02685 11.7178 7.04004C11.6933 7.04723 11.6692 7.05548 11.6455 7.06445C11.6403 7.06643 11.635 7.06826 11.6299 7.07031C11.6129 7.07707 11.5966 7.08513 11.5801 7.09277C11.5623 7.10099 11.5445 7.10895 11.5273 7.11816C11.5223 7.12086 11.5177 7.12418 11.5127 7.12695C11.4928 7.13809 11.4732 7.14968 11.4541 7.16211C11.4439 7.16878 11.4338 7.17559 11.4238 7.18262C11.4052 7.19577 11.3868 7.20927 11.3691 7.22363C11.3654 7.22668 11.3621 7.23029 11.3584 7.2334C11.3393 7.2494 11.3206 7.26584 11.3027 7.2832C11.2961 7.28962 11.2896 7.29613 11.2832 7.30273C11.267 7.31941 11.2514 7.33671 11.2363 7.35449C11.2319 7.35977 11.227 7.36474 11.2227 7.37012C11.2093 7.38653 11.1969 7.40365 11.1846 7.4209C11.1775 7.43082 11.1708 7.44098 11.1641 7.45117C11.1399 7.48786 11.1188 7.52656 11.0996 7.56641C11.0913 7.58366 11.0816 7.60037 11.0742 7.61816C11.0381 7.7056 11.0148 7.79961 11.0049 7.89746L11 8C11 8.55228 11.4477 9 12 9C12.5523 9 13 8.55228 13 8L12.9951 7.89746C12.9888 7.83565 12.976 7.77575 12.959 7.71777C12.9446 7.66888 12.9266 7.62164 12.9053 7.57617C12.9017 7.56851 12.8973 7.56126 12.8936 7.55371C12.8715 7.50962 12.8474 7.46683 12.8193 7.42676C12.8148 7.4203 12.8094 7.41454 12.8047 7.4082C12.7445 7.32652 12.6726 7.2544 12.5908 7.19434C12.5845 7.18967 12.5787 7.1842 12.5723 7.17969C12.5322 7.15166 12.4894 7.12747 12.4453 7.10547C12.4378 7.1017 12.4305 7.09733 12.4229 7.09375C12.3774 7.0725 12.3301 7.05434 12.2812 7.04004C12.2236 7.02318 12.1639 7.01114 12.1025 7.00488L12 7Z" fill="currentColor"/>
</svg>
