<svg width="24" height="24" viewBox="0 0 24 24" fill="none" xmlns="http://www.w3.org/2000/svg">
<path d="M17.5 2C18.0523 2 18.5 2.44772 18.5 3C18.5 3.55228 18.0523 4 17.5 4H17V7H18.7334C19.1115 7 19.4631 6.99935 19.7559 7.02637C20.0644 7.05485 20.3997 7.12005 20.7256 7.30762C21.1876 7.57355 21.5414 7.98471 21.7568 8.46191C21.9031 8.78612 21.9554 9.11682 21.9785 9.43652C22.001 9.74769 22 10.1263 22 10.5596V13.4404C22 13.8737 22.001 14.2523 21.9785 14.5635C21.9554 14.8832 21.9031 15.2139 21.7568 15.5381C21.5414 16.0153 21.1876 16.4264 20.7256 16.6924C20.3997 16.8799 20.0644 16.9451 19.7559 16.9736C19.4631 17.0006 19.1115 17 18.7334 17H17V20H17.5C18.0523 20 18.5 20.4477 18.5 21C18.5 21.5523 18.0523 22 17.5 22H14.5C13.9477 22 13.5 21.5523 13.5 21C13.5 20.4477 13.9477 20 14.5 20H15V4H14.5C13.9477 4 13.5 3.55228 13.5 3C13.5 2.44773 13.9477 2.00001 14.5 2H17.5ZM12 7C12.5523 7 13 7.44772 13 8C13 8.55228 12.5523 9 12 9H5.26661C4.85134 9 4.60739 9.001 4.42774 9.01758C4.26425 9.03269 4.24953 9.05421 4.27247 9.04102C4.20163 9.08178 4.12263 9.16055 4.06641 9.28516C4.05829 9.30318 4.03205 9.3678 4.01661 9.58105C4.00053 9.80332 4.00001 10.0972 4.00001 10.5596V13.4404C4.00001 13.9028 4.00053 14.1967 4.01661 14.4189C4.03205 14.6322 4.05829 14.6968 4.06641 14.7148C4.12263 14.8395 4.20163 14.9182 4.27247 14.959C4.24953 14.9458 4.26426 14.9673 4.42774 14.9824C4.60739 14.999 4.85134 15 5.26661 15H12C12.5523 15 13 15.4477 13 16C13 16.5523 12.5523 17 12 17H5.26661C4.88854 17 4.53693 17.0007 4.24415 16.9736C3.9356 16.9451 3.60036 16.8799 3.27442 16.6924C2.81241 16.4264 2.45858 16.0153 2.24317 15.5381C2.09691 15.2139 2.04464 14.8832 2.02149 14.5635C1.99898 14.2523 2.00001 13.8737 2.00001 13.4404V10.5596C2.00001 10.1263 1.99898 9.74769 2.02149 9.43652C2.04464 9.11681 2.09691 8.78612 2.24317 8.46191C2.45858 7.98471 2.81241 7.57356 3.27442 7.30762C3.60036 7.12005 3.9356 7.05486 4.24415 7.02637C4.53693 6.99935 4.88854 7 5.26661 7H12ZM17 15H18.7334C19.1487 15 19.3926 14.999 19.5723 14.9824C19.7358 14.9673 19.7505 14.9458 19.7275 14.959C19.7984 14.9182 19.8774 14.8395 19.9336 14.7148C19.9417 14.6968 19.968 14.6322 19.9834 14.4189C19.9995 14.1967 20 13.9029 20 13.4404V10.5596C20 10.0972 19.9995 9.80332 19.9834 9.58105C19.968 9.36775 19.9417 9.30316 19.9336 9.28516C19.8774 9.16054 19.7984 9.08178 19.7275 9.04102C19.7505 9.05423 19.7358 9.0327 19.5723 9.01758C19.3926 9.001 19.1487 9 18.7334 9H17V15Z" fill="currentColor"/>
</svg>
