<svg width="24" height="24" viewBox="0 0 24 24" fill="none" xmlns="http://www.w3.org/2000/svg">
<path d="M8.625 5.375C10.4199 5.375 11.875 6.83007 11.875 8.625C11.875 10.4199 10.4199 11.875 8.625 11.875C6.83007 11.875 5.375 10.4199 5.375 8.625C5.375 6.83007 6.83007 5.375 8.625 5.375ZM8.625 7.375C7.93464 7.375 7.375 7.93464 7.375 8.625C7.375 9.31536 7.93464 9.875 8.625 9.875C9.31536 9.875 9.875 9.31536 9.875 8.625C9.875 7.93464 9.31536 7.375 8.625 7.375Z" fill="currentColor"/>
<path d="M18 2C20.2091 2 22 3.79086 22 6V18C22 20.2091 20.2091 22 18 22H6C3.79086 22 2 20.2091 2 18V6C2 3.79086 3.79086 2 6 2H18ZM14.9844 12.3828C14.9327 12.3363 14.8527 12.3404 14.8066 12.3926L8.09473 20H18C19.1046 20 20 19.1046 20 18V16.9424L14.9844 12.3828ZM6 4C4.89543 4 4 4.89543 4 6V18C4 18.9345 4.64153 19.717 5.50781 19.9365C5.54052 19.88 5.58013 19.8263 5.625 19.7754L13.3076 11.0693C14.0923 10.1804 15.4527 10.1058 16.3301 10.9033L20 14.2383V6C20 4.89543 19.1046 4 18 4H6Z" fill="currentColor"/>
</svg>
