<svg width="24" height="24" viewBox="0 0 24 24" fill="none" xmlns="http://www.w3.org/2000/svg">
<path d="M15.5003 13.9999C16.3285 14.0001 17.0002 14.6717 17.0003 15.4999C17.0003 16.3282 16.3286 16.9997 15.5003 16.9999C14.6719 16.9999 14.0003 16.3283 14.0003 15.4999C14.0005 14.6716 14.672 13.9999 15.5003 13.9999Z" fill="#FF00CD"/>
<path d="M8.35384 2.30359C9.3464 1.96727 10.4437 2.22282 11.1849 2.96374C11.9261 3.70495 12.1825 4.80305 11.846 5.79577L11.6048 6.50769L13.9564 8.85827H15.1986C18.7999 8.85832 21.7191 11.7784 21.7191 15.3798C21.7188 18.9809 18.7997 21.9002 15.1986 21.9003C11.5974 21.9002 8.67836 18.9809 8.67806 15.3798V14.1376L3.31087 8.77038C2.81834 8.27781 2.51218 7.62881 2.44563 6.93542L2.22005 4.58288C2.1001 3.33173 3.15056 2.28149 4.40169 2.40124L7.25716 2.67566L8.35384 2.30359ZM9.77083 4.37878C9.56786 4.17582 9.26729 4.10502 8.99544 4.19714L7.69563 4.63757L7.49251 4.70691L4.21126 4.39245L4.43684 6.74499C4.4591 6.97595 4.56089 7.19222 4.72493 7.35632L10.0921 12.7235C10.4669 13.0985 10.6781 13.6073 10.6781 14.1376V15.3798C10.6784 17.8763 12.702 19.9002 15.1986 19.9003C17.6951 19.9002 19.7188 17.8763 19.7191 15.3798C19.7191 12.883 17.6953 10.8583 15.1986 10.8583H13.9564C13.426 10.8582 12.9173 10.6473 12.5423 10.2723L10.0413 7.77234C9.59463 7.32563 9.44035 6.66365 9.6429 6.06531L9.95149 5.15417C10.0436 4.88242 9.97361 4.58176 9.77083 4.37878Z" fill="#FF00CD"/>
</svg>
