<svg width="24" height="24" viewBox="0 0 24 24" fill="none" xmlns="http://www.w3.org/2000/svg">
<path d="M5.58611 10.1562C6.00789 9.73462 6.69174 9.73452 7.11345 10.1562C7.53516 10.5779 7.53505 11.2618 7.11345 11.6836L5.28533 13.5117C3.84908 14.9483 3.84894 17.2773 5.28533 18.7138C6.72181 20.1503 9.05087 20.1501 10.4875 18.7138L12.3156 16.8857C12.7373 16.464 13.4212 16.4641 13.8429 16.8857C14.2647 17.3075 14.2647 17.9913 13.8429 18.4131L12.0148 20.2412C9.73468 22.521 6.038 22.5212 3.75798 20.2412C1.47806 17.9612 1.4782 14.2645 3.75798 11.9843L5.58611 10.1562Z" fill="#FF00CD"/>
<path d="M14.4767 7.99607C14.8985 7.57454 15.5824 7.57438 16.0041 7.99607C16.4255 8.41777 16.4255 9.1017 16.0041 9.52341L9.52361 16.0039C9.10189 16.4252 8.41794 16.4253 7.99626 16.0039C7.57461 15.5822 7.57483 14.8983 7.99626 14.4765L14.4767 7.99607Z" fill="#FF00CD"/>
<path d="M11.9836 3.75876C14.2637 1.47889 17.9604 1.47881 20.2404 3.75876C22.5205 6.03881 22.5203 9.73546 20.2404 12.0156L18.4123 13.8437C17.9905 14.2652 17.3066 14.2654 16.8849 13.8437C16.4634 13.422 16.4635 12.7381 16.8849 12.3164L18.7131 10.4883C20.1494 9.05165 20.1496 6.72262 18.7131 5.2861C17.2765 3.84969 14.9475 3.84977 13.5109 5.2861L11.6838 7.11325C11.262 7.53493 10.5772 7.53499 10.1554 7.11325C9.7342 6.69148 9.73394 6.00752 10.1554 5.58591L11.9836 3.75876Z" fill="#FF00CD"/>
</svg>
