<svg width="24" height="24" viewBox="0 0 24 24" fill="none" xmlns="http://www.w3.org/2000/svg">
<path d="M19 2.89941C20.6569 2.89941 22 4.24354 22 5.90039V13.9004L21.9961 14.0547C21.9155 15.6396 20.6049 16.9004 19 16.9004H16V19.0996H17C17.5522 19.0996 17.9999 19.5474 18 20.0996C18 20.6519 17.5523 21.0996 17 21.0996H7C6.44772 21.0996 6 20.6519 6 20.0996C6.00013 19.5474 6.4478 19.0996 7 19.0996H8.39941V16.9004H5L4.8457 16.8965C3.31182 16.8188 2.08186 15.5885 2.00391 14.0547L2 13.9004V5.90039C2 4.24354 3.34315 2.89941 5 2.89941H19ZM10.3994 16.9004V19.0996H14V16.9004H10.3994ZM5 4.90039C4.44772 4.90039 4 5.34811 4 5.90039V13.9004C4.00026 14.4525 4.44788 14.9004 5 14.9004H19C19.5521 14.9004 19.9997 14.4525 20 13.9004V5.90039C20 5.38273 19.6066 4.95663 19.1025 4.90527L19 4.90039H5Z" fill="currentColor"/>
</svg>
