<svg width="24" height="24" viewBox="0 0 24 24" fill="none" xmlns="http://www.w3.org/2000/svg">
<path d="M19 4C20.6569 4 22 5.34315 22 7V17C22 18.6569 20.6569 20 19 20H5C3.34315 20 2 18.6569 2 17V7C2 5.34315 3.34315 4 5 4H19ZM14.2139 13.4531C13.6853 13.8129 13.2136 14.1527 12.6709 14.2842C12.2303 14.3909 11.7697 14.3909 11.3291 14.2842C10.7864 14.1527 10.3147 13.8129 9.78613 13.4531L4 9.51465V17C4 17.5523 4.44772 18 5 18H19C19.5523 18 20 17.5523 20 17V9.51465L14.2139 13.4531ZM5 6C4.44772 6 4 6.44772 4 7V7.09473L10.9111 11.7988C11.5717 12.2483 11.6955 12.3145 11.7998 12.3398C11.9309 12.3716 12.0691 12.3716 12.2002 12.3398C12.3045 12.3145 12.4284 12.2483 13.0889 11.7988L20 7.09473V7C20 6.44772 19.5523 6 19 6H5Z" fill="currentColor"/>
</svg>
