<svg width="24" height="24" viewBox="0 0 24 24" fill="none" xmlns="http://www.w3.org/2000/svg">
<path d="M9 13C9.7516 13 10.4072 13.0001 10.9521 13.0293C11.4886 13.058 12.0053 13.1175 12.4541 13.2764C13.9253 13.7972 15.0487 14.9836 15.6621 16.4521C15.7123 16.5724 15.7393 16.6492 15.8096 16.8965C15.8611 17.0777 15.9425 17.4836 15.9648 17.6709C16.0006 17.9709 16 18.1585 16 18.4316V21C16 21.5523 15.5523 22 15 22C14.4477 22 14 21.5523 14 21V18.4316C14 18.1638 13.999 18.0802 13.9785 17.9082C13.9785 17.9082 13.9782 17.906 13.9775 17.9014C13.9769 17.897 13.9767 17.8911 13.9756 17.8838C13.9732 17.8687 13.9697 17.8495 13.9658 17.8271C13.958 17.7823 13.9484 17.7292 13.9375 17.6748C13.9266 17.6205 13.9153 17.5678 13.9053 17.5234C13.9003 17.5014 13.8952 17.4826 13.8916 17.4678C13.8899 17.4607 13.8888 17.4545 13.8877 17.4502C13.8867 17.4465 13.8857 17.4434 13.8857 17.4434C13.8538 17.331 13.8396 17.2834 13.832 17.2607C13.8292 17.2524 13.8271 17.249 13.8271 17.249C13.826 17.246 13.8242 17.2422 13.8164 17.2236C13.3849 16.1903 12.6433 15.4655 11.7861 15.1621C11.6156 15.1018 11.3333 15.0525 10.8457 15.0264C10.3661 15.0007 9.77084 15 9 15C8.22916 15 7.63392 15.0007 7.1543 15.0264C6.66673 15.0525 6.38437 15.1018 6.21387 15.1621C5.35673 15.4655 4.61513 16.1903 4.18359 17.2236C4.17582 17.2422 4.17404 17.246 4.17285 17.249C4.17285 17.249 4.17076 17.2524 4.16797 17.2607C4.16039 17.2834 4.14618 17.331 4.11426 17.4434C4.11426 17.4434 4.11328 17.4465 4.11231 17.4502C4.11117 17.4545 4.11014 17.4607 4.1084 17.4678C4.10475 17.4826 4.0997 17.5014 4.09473 17.5234C4.08471 17.5678 4.07338 17.6205 4.0625 17.6748C4.05161 17.7292 4.04204 17.7823 4.03418 17.8271C4.03027 17.8495 4.02677 17.8687 4.02441 17.8838C4.02329 17.8911 4.02308 17.897 4.02246 17.9014C4.02181 17.906 4.02149 17.9082 4.02149 17.9082C4.00098 18.0802 4 18.1638 4 18.4316V21C4 21.5523 3.55229 22 3 22C2.44772 22 2 21.5523 2 21V18.4316C2 18.1585 1.99939 17.9709 2.03516 17.6709C2.05754 17.4836 2.13894 17.0777 2.19043 16.8965C2.26071 16.6492 2.28768 16.5724 2.33789 16.4521C2.95128 14.9836 4.07473 13.7972 5.5459 13.2764C5.99473 13.1175 6.51138 13.058 7.04785 13.0293C7.59277 13.0001 8.24841 13 9 13Z" fill="currentColor"/>
<path d="M16.5 13C17.1824 13 17.583 13.0098 17.8906 13.0566C18.2042 13.1044 18.4789 13.2107 18.6504 13.2627C19.9612 13.6603 20.945 14.7017 21.5234 15.7979C21.5864 15.9172 21.62 16.0081 21.7139 16.2734C21.7878 16.4827 21.9151 16.9953 21.9473 17.2148C22.0006 17.5786 22 17.7862 22 18.0908C22 18.879 22 19.8437 22 20.8027C21.9997 21.3548 21.5521 21.8027 21 21.8027C20.4479 21.8027 20.0003 21.3548 20 20.8027V18.0908C20 17.8064 19.9991 17.7185 19.9678 17.5049C19.9678 17.5049 19.9669 17.495 19.9639 17.4795C19.9604 17.4614 19.9553 17.4379 19.9492 17.4102C19.9371 17.3547 19.922 17.2884 19.9053 17.2207C19.8885 17.1531 19.8706 17.0878 19.8555 17.0332C19.8479 17.0059 19.8413 16.9825 19.8359 16.9648C19.8312 16.9492 19.8281 16.9404 19.8281 16.9404C19.7817 16.809 19.7589 16.7505 19.748 16.7227C19.3363 15.9472 18.7189 15.3738 18.0693 15.1768C17.6736 15.0567 17.7152 15.0533 17.5898 15.0342C17.4584 15.0141 17.2128 15 16.5 15C15.9477 15 15.5 14.5523 15.5 14C15.5 13.4477 15.9477 13 16.5 13Z" fill="currentColor"/>
<path d="M9 2C11.7614 2 14 4.23858 14 7C14 9.76142 11.7614 12 9 12C6.23858 12 4 9.76142 4 7C4 4.23858 6.23858 2 9 2ZM9 4C7.34315 4 6 5.34315 6 7C6 8.65685 7.34315 10 9 10C10.6569 10 12 8.65685 12 7C12 5.34315 10.6569 4 9 4Z" fill="currentColor"/>
<path d="M15 2C17.7614 2 20 4.23858 20 7C20 9.76142 17.7614 12 15 12C14.4477 12 14 11.5523 14 11C14 10.4477 14.4477 10 15 10C16.6569 10 18 8.65685 18 7C18 5.34315 16.6569 4 15 4C14.4477 4 14 3.55228 14 3C14 2.44772 14.4477 2 15 2Z" fill="currentColor"/>
</svg>
