<svg width="24" height="24" viewBox="0 0 24 24" fill="none" xmlns="http://www.w3.org/2000/svg">
<path d="M18.5 15.001C19.0522 15.0011 19.5 15.4487 19.5 16.001V17.501H21C21.5522 17.5011 22 17.9487 22 18.501C21.9994 19.0527 21.5519 19.5009 21 19.501H19.5V21.001C19.4994 21.5527 19.0519 22.0009 18.5 22.001C17.9481 22.001 17.5006 21.5528 17.5 21.001V19.501H16C15.4481 19.501 15.0006 19.0528 15 18.501C15 17.9487 15.4477 17.501 16 17.501H17.5V16.001C17.5 15.4487 17.9477 15.001 18.5 15.001Z" fill="currentColor"/>
<path d="M16.626 11.4092L9.06055 18.9746C7.61142 20.4235 5.49515 21.2066 3.95801 21.6104C3.43599 21.7475 3.17438 21.8164 2.87305 21.7002C2.64793 21.6133 2.38802 21.3521 2.30078 21.127C2.18449 20.8256 2.25254 20.5639 2.38965 20.042C2.79341 18.505 3.57668 16.3896 5.02539 14.9404L12.5908 7.37402L16.626 11.4092Z" fill="currentColor"/>
<path d="M17.1299 2.83594C18.244 1.72221 20.05 1.72209 21.1641 2.83594C22.2778 3.95009 22.2781 5.75709 21.1641 6.87109L18.04 9.99512L14.0049 5.95996L17.1299 2.83594Z" fill="currentColor"/>
<path d="M4.80176 2C6.34772 2.00013 7.60142 3.25384 7.60156 4.7998C7.6013 6.34567 6.34765 7.59948 4.80176 7.59961C3.25576 7.59961 2.00221 6.34574 2.00195 4.7998C2.00209 3.25376 3.25568 2 4.80176 2Z" fill="currentColor"/>
</svg>
