<svg width="24" height="24" viewBox="0 0 24 24" fill="none" xmlns="http://www.w3.org/2000/svg">
<path d="M15.9099 3.04492C17.3031 1.652 19.5616 1.65195 20.9548 3.04492C22.3479 4.43808 22.3478 6.69659 20.9548 8.08984L10.0612 18.9834C8.75578 20.2887 6.98273 21.0306 5.61691 21.4463C4.92207 21.6577 4.30332 21.7938 3.85715 21.877C3.63371 21.9186 3.45097 21.9473 3.32297 21.9658C3.25936 21.975 3.2084 21.9818 3.17258 21.9863C3.15484 21.9886 3.13995 21.99 3.12961 21.9912C3.12465 21.9918 3.12007 21.9928 3.11691 21.9932H3.11301L3.11008 21.9941C2.80836 22.0275 2.50736 21.9217 2.2927 21.707C2.07807 21.4923 1.97214 21.1914 2.00559 20.8896L2.00656 20.8867V20.8828C2.00693 20.8796 2.0079 20.8752 2.00852 20.8701C2.00975 20.8597 2.01112 20.8451 2.0134 20.8271C2.01797 20.7913 2.02466 20.7405 2.03391 20.6768C2.05248 20.5487 2.08109 20.3662 2.12277 20.1426C2.20598 19.6964 2.34195 19.0778 2.55344 18.3828C2.96912 17.017 3.71099 15.244 5.01633 13.9385L15.9099 3.04492ZM6.43039 15.3525C5.46667 16.3164 4.84607 17.7211 4.4675 18.9648C4.38361 19.2405 4.31329 19.5033 4.25461 19.7441C4.49552 19.6854 4.75905 19.6162 5.03488 19.5322C6.27866 19.1537 7.68332 18.5331 8.64719 17.5693L15.7165 10.5L13.4997 8.2832L6.43039 15.3525ZM19.5407 4.45898C18.9286 3.84706 17.9361 3.84711 17.3239 4.45898L14.9138 6.86914L17.1306 9.08594L19.5407 6.67578C20.1527 6.06358 20.1528 5.07109 19.5407 4.45898Z" fill="currentColor"/>
<path d="M18.4997 15C19.052 15 19.4997 15.4477 19.4997 16V17.5H20.9997C21.552 17.5 21.9997 17.9477 21.9997 18.5C21.9997 19.0523 21.552 19.5 20.9997 19.5H19.4997V21C19.4997 21.5523 19.052 22 18.4997 22C17.9475 21.9999 17.4997 21.5522 17.4997 21V19.5H15.9997C15.4475 19.4999 14.9997 19.0522 14.9997 18.5C14.9997 17.9478 15.4475 17.5001 15.9997 17.5H17.4997V16C17.4997 15.4478 17.9475 15.0001 18.4997 15Z" fill="currentColor"/>
<path d="M4.80148 2C6.34751 2.00016 7.60129 3.25374 7.60129 4.7998C7.60116 6.34576 6.34743 7.59945 4.80148 7.59961C3.25551 7.59949 2.00181 6.34578 2.00168 4.7998C2.00168 3.25372 3.25543 2.00012 4.80148 2ZM4.80148 4C4.36 4.00012 4.00168 4.35829 4.00168 4.7998C4.00181 5.24121 4.36007 5.59949 4.80148 5.59961C5.24286 5.59945 5.60116 5.24119 5.60129 4.7998C5.60129 4.35831 5.24294 4.00016 4.80148 4Z" fill="currentColor"/>
</svg>
