<svg width="24" height="24" viewBox="0 0 24 24" fill="none" xmlns="http://www.w3.org/2000/svg">
<path d="M10.3145 8.34375C9.95479 9.24277 9.24181 9.95482 8.34277 10.3145L4.12891 12L8.34277 13.6855C9.2418 14.0452 9.95479 14.7572 10.3145 15.6562L11.999 19.8691L13.6846 15.6562C14.0443 14.7572 14.7572 14.0451 15.6562 13.6855L19.8701 12L15.6562 10.3145C14.7572 9.95486 14.0443 9.24278 13.6846 8.34375L11.999 4.12988L10.3145 8.34375ZM22 12C22 12.7863 21.5211 13.4931 20.791 13.7852L16.3984 15.542C16.0076 15.6983 15.6984 16.0085 15.542 16.3994L13.7852 20.791C13.4932 21.521 12.7862 21.9998 12 22C11.2136 22 10.5059 21.5211 10.2139 20.791L8.45703 16.3994C8.30067 16.0085 7.99143 15.6984 7.60059 15.542L3.20898 13.7852C2.47888 13.4931 2 12.7863 2 12C2 11.2137 2.47888 10.5069 3.20898 10.2148L7.60059 8.45801C7.99143 8.30164 8.30067 7.99149 8.45703 7.60059L10.2139 3.20898L10.2734 3.0752C10.5946 2.42089 11.2627 2 12 2L12.1455 2.00586C12.824 2.05732 13.4258 2.46438 13.7256 3.0752L13.7852 3.20898L15.542 7.60059C15.6984 7.99146 16.0076 8.30166 16.3984 8.45801L20.791 10.2148C21.5211 10.5069 22 11.2137 22 12Z" fill="currentColor"/>
</svg>
