<svg width="24" height="24" viewBox="0 0 24 24" fill="none" xmlns="http://www.w3.org/2000/svg">
<path d="M12.9517 2.64473C12.796 2.25533 12.4188 2 11.9995 2C11.5801 2 11.203 2.25533 11.0472 2.64473L9.09542 7.52453C8.80876 8.24123 8.2409 8.80912 7.52424 9.0958L2.64469 11.0477C2.25532 11.2035 2 11.5806 2 12C2 12.4194 2.25532 12.7965 2.64469 12.9523L7.52424 14.9042C8.2409 15.1909 8.80876 15.7588 9.09542 16.4755L11.0472 21.3553C11.203 21.7447 11.5801 22 11.9995 22C12.4188 22 12.796 21.7447 12.9517 21.3553L14.9035 16.4756C15.1902 15.7588 15.7581 15.1909 16.4748 14.9043L21.3553 12.9523C21.7447 12.7966 22 12.4194 22 12C22 11.5806 21.7447 11.2034 21.3553 11.0477L16.4748 9.09574C15.7581 8.80908 15.1902 8.24116 14.9035 7.52441L12.9517 2.64473Z" fill="currentColor"/>
</svg>
