<svg width="24" height="24" viewBox="0 0 24 24" fill="none" xmlns="http://www.w3.org/2000/svg">
<path d="M15.293 8.29297C15.6835 7.90248 16.3165 7.90254 16.707 8.29297C17.0976 8.68349 17.0976 9.31651 16.707 9.70703L14.4141 12L16.707 14.293C17.0976 14.6835 17.0976 15.3165 16.707 15.707C16.3165 16.0975 15.6835 16.0975 15.293 15.707L12.3633 12.7773L12.2881 12.6943C11.9592 12.2911 11.9592 11.7089 12.2881 11.3057L12.3633 11.2227L15.293 8.29297Z" fill="currentColor"/>
<path d="M19 2C20.6569 2 22 3.34315 22 5V19C22 20.6569 20.6569 22 19 22H5C3.34315 22 2 20.6569 2 19V5C2 3.34315 3.34315 2 5 2H19ZM5 4C4.44772 4 4 4.44772 4 5V19C4 19.5523 4.44772 20 5 20H8V4H5ZM10 20H19C19.5523 20 20 19.5523 20 19V5C20 4.44772 19.5523 4 19 4H10V20Z" fill="currentColor"/>
</svg>
