<svg width="24" height="24" viewBox="0 0 24 24" fill="none" xmlns="http://www.w3.org/2000/svg">
<path d="M4.7306 10.1084C5.0009 10.1085 5.26012 10.2181 5.44838 10.4121L7.17885 12.1953C7.5633 12.5916 7.55446 13.2248 7.15834 13.6094C6.79799 13.9591 6.24269 13.981 5.8556 13.6846C6.57717 16.5169 9.07285 18.5791 12.0001 18.5791C14.0993 18.579 15.9703 17.525 17.1329 15.8809C17.4518 15.4301 18.0756 15.3228 18.5265 15.6416C18.9772 15.9604 19.0843 16.5843 18.7658 17.0352C17.2535 19.1737 14.7911 20.579 12.0001 20.5791C7.87 20.5791 4.47863 17.5161 3.77943 13.5244L3.71791 13.5879C3.33339 13.9841 2.70019 13.9936 2.30385 13.6094C1.90761 13.2248 1.89795 12.5916 2.28236 12.1953L4.01283 10.4121C4.20107 10.2182 4.46038 10.1085 4.7306 10.1084Z" fill="currentColor"/>
<path d="M12.0001 3.4209C16.13 3.42104 19.5225 6.48318 20.2218 10.4746L20.2824 10.4121C20.667 10.016 21.3001 10.0061 21.6964 10.3906C22.0925 10.7752 22.1023 11.4084 21.7179 11.8047L19.9874 13.5879C19.7993 13.7818 19.5399 13.8914 19.2697 13.8916C18.9993 13.8916 18.7402 13.7818 18.5519 13.5879L16.8214 11.8047C16.4368 11.4084 16.4457 10.7753 16.8419 10.3906C17.2024 10.0409 17.7586 10.0177 18.1456 10.3145C17.424 7.48236 14.9272 5.42103 12.0001 5.4209C9.90093 5.4209 8.03001 6.47494 6.86732 8.11914C6.54852 8.5698 5.92462 8.67686 5.47377 8.3584C5.02283 8.03954 4.91565 7.4148 5.23451 6.96387C6.74681 4.82545 9.20923 3.4209 12.0001 3.4209Z" fill="currentColor"/>
</svg>
