<svg width="24" height="24" viewBox="0 0 24 24" fill="none" xmlns="http://www.w3.org/2000/svg">
<path d="M12 2C12.3879 2 12.7653 2.11847 13.082 2.33789L13.2139 2.43848L13.3369 2.5498C13.6101 2.82031 13.7957 3.16849 13.8672 3.54883L14.8125 8.5498L14.8438 8.66602C14.8833 8.77878 14.948 8.88159 15.0332 8.9668C15.1469 9.08048 15.2922 9.15766 15.4502 9.1875L20.4512 10.1328C20.8864 10.2144 21.2785 10.4455 21.5615 10.7861C21.8448 11.1272 22 11.5567 22 12C22 12.4433 21.8448 12.8728 21.5615 13.2139C21.2786 13.5545 20.8854 13.7846 20.4502 13.8662L20.4512 13.8672L15.4502 14.8125C15.2922 14.8423 15.1469 14.9195 15.0332 15.0332C14.948 15.1184 14.8833 15.2212 14.8438 15.334L14.8125 15.4502L13.8672 20.4512C13.7854 20.8861 13.5543 21.2787 13.2139 21.5615C12.8728 21.8448 12.4433 22 12 22C11.5567 22 11.1272 21.8448 10.7861 21.5615C10.4457 21.2787 10.2146 20.8861 10.1328 20.4512L9.1875 15.4502C9.15766 15.2922 9.08048 15.1469 8.9668 15.0332C8.88159 14.948 8.77878 14.8833 8.66602 14.8438L8.5498 14.8125L3.54883 13.8672C3.114 13.7854 2.72122 13.5542 2.43848 13.2139C2.15523 12.8728 2 12.4433 2 12C2 11.5567 2.15523 11.1272 2.43848 10.7861C2.72126 10.4457 3.11393 10.2146 3.54883 10.1328L8.5498 9.1875L8.66602 9.15625C8.77878 9.11673 8.88159 9.05201 8.9668 8.9668C9.08048 8.85312 9.15766 8.70778 9.1875 8.5498L10.1328 3.54883C10.2146 3.11393 10.4457 2.72126 10.7861 2.43848C11.1272 2.15523 11.5567 2 12 2ZM11.1523 8.9209C11.0479 9.47402 10.7789 9.98283 10.3809 10.3809C9.98283 10.7789 9.47402 11.0479 8.9209 11.1523L4.43652 12L8.9209 12.8477C9.47402 12.9521 9.98283 13.2211 10.3809 13.6191C10.7789 14.0172 11.0479 14.526 11.1523 15.0791L12 19.5625L12.8477 15.0791C12.9521 14.526 13.2211 14.0172 13.6191 13.6191C14.0172 13.2211 14.526 12.9521 15.0791 12.8477L19.5625 12L15.0791 11.1523C14.526 11.0479 14.0172 10.7789 13.6191 10.3809C13.2211 9.98283 12.9521 9.47402 12.8477 8.9209L12 4.43652L11.1523 8.9209ZM20.0781 11.9023H20.0801L20.082 11.9014C20.0808 11.9016 20.0794 11.9021 20.0781 11.9023Z" fill="currentColor"/>
<path d="M4.80176 16.3984C6.34773 16.3986 7.60143 17.6523 7.60156 19.1982C7.60144 20.7442 6.34773 21.9979 4.80176 21.998C3.25568 21.998 2.00208 20.7443 2.00195 19.1982C2.00209 17.6522 3.25568 16.3984 4.80176 16.3984ZM4.80176 18.3984C4.36025 18.3984 4.00209 18.7568 4.00195 19.1982C4.00208 19.6397 4.36025 19.998 4.80176 19.998C5.24316 19.9979 5.60144 19.6396 5.60156 19.1982C5.60143 18.7568 5.24316 18.3986 4.80176 18.3984Z" fill="currentColor"/>
<path d="M19.1982 2.00195C19.7504 2.00195 20.1981 2.44978 20.1982 3.00195V3.80176H20.999L21.1006 3.80664C21.6047 3.85796 21.999 4.28408 21.999 4.80176C21.999 5.31944 21.6047 5.74555 21.1006 5.79688L20.999 5.80176H20.1982V6.60156L20.1934 6.70312C20.1423 7.20749 19.7161 7.60156 19.1982 7.60156C18.6804 7.60156 18.2542 7.20749 18.2031 6.70312L18.1982 6.60156V5.80176H17.3994C16.8471 5.80176 16.3994 5.35404 16.3994 4.80176C16.3994 4.24947 16.8471 3.80176 17.3994 3.80176H18.1982V3.00195C18.1984 2.44978 18.646 2.00195 19.1982 2.00195Z" fill="currentColor"/>
</svg>
