<svg width="24" height="24" viewBox="0 0 24 24" fill="none" xmlns="http://www.w3.org/2000/svg">
<path d="M10.0557 2.69858C10.4019 2.53205 10.8131 2.57889 11.1133 2.8187L21.624 11.2191C21.8615 11.4089 22 11.6964 22 12.0003C21.9999 12.3042 21.8614 12.5919 21.624 12.7816L11.1133 21.181C10.8131 21.4209 10.402 21.4677 10.0557 21.3011C9.70938 21.1345 9.48926 20.784 9.48926 20.3998V16.3626C7.34875 16.8622 5.46626 17.7899 3.5752 19.1185C3.26984 19.333 2.87022 19.3589 2.53906 19.1869C2.20802 19.0148 2.00007 18.6732 2 18.3001V17.7757L2.00684 17.6566C2.49427 13.6005 5.24669 9.32401 9.48926 8.0687V3.59995C9.48926 3.21565 9.70934 2.86516 10.0557 2.69858ZM11.4893 8.8519C11.4891 9.32987 11.1507 9.74139 10.6816 9.83335C7.5999 10.4375 5.23291 13.1762 4.32715 16.2738C6.17107 15.23 8.1162 14.5063 10.3359 14.1615C10.6244 14.1167 10.9179 14.201 11.1396 14.391C11.3613 14.5809 11.4892 14.8579 11.4893 15.1498V18.3207L19.3975 11.9994L11.4893 5.67905V8.8519Z" fill="currentColor"/>
</svg>
