<svg width="24" height="24" viewBox="0 0 24 24" fill="none" xmlns="http://www.w3.org/2000/svg">
<path d="M10.8554 5.49119C11.2393 5.21322 11.7605 5.21322 12.1444 5.49119L12.2245 5.55466L16.1581 8.99705C16.5736 9.36063 16.6162 9.99254 16.2528 10.4082C15.8893 10.8237 15.2574 10.8663 14.8417 10.5029L11.4999 7.57908L8.15812 10.5029C7.74248 10.8663 7.11057 10.8237 6.74699 10.4082C6.38363 9.99254 6.42619 9.36063 6.84171 8.99705L10.7753 5.55466L10.8554 5.49119Z" fill="currentColor"/>
<path d="M10.8554 18.5088C11.2393 18.7867 11.7605 18.7867 12.1444 18.5088L12.2245 18.4453L16.1581 15.0029C16.5736 14.6393 16.6162 14.0074 16.2528 13.5918C15.8893 13.1763 15.2573 13.1337 14.8417 13.497L11.4999 16.4209L8.15811 13.497C7.74247 13.1337 7.11056 13.1763 6.74698 13.5918C6.38363 14.0074 6.42619 14.6393 6.84171 15.0029L10.7753 18.4453L10.8554 18.5088Z" fill="currentColor"/>
</svg>
