<svg width="24" height="24" viewBox="0 0 24 24" fill="none" xmlns="http://www.w3.org/2000/svg">
<path d="M17.4004 7.59961H6.7998V16.6797C6.7998 17.4523 6.80032 17.972 6.83301 18.3721C6.86474 18.7604 6.92202 18.948 6.98535 19.0723C7.14835 19.392 7.40878 19.6515 7.72852 19.8145C7.8528 19.8777 8.0397 19.9351 8.42773 19.9668C8.8278 19.9995 9.34755 20 10.1201 20H14.0801C14.8523 20 15.3715 19.9994 15.7715 19.9668C16.1599 19.9351 16.3474 19.8778 16.4717 19.8145C16.7914 19.6515 17.0519 19.392 17.2148 19.0723C17.2782 18.948 17.3345 18.7603 17.3662 18.3721C17.3989 17.972 17.4004 17.4523 17.4004 16.6797V7.59961ZM9.2998 16.0498V11.5498C9.29991 10.9977 9.74767 10.5499 10.2998 10.5498C10.852 10.5498 11.2997 10.9976 11.2998 11.5498V16.0498C11.2998 16.6021 10.8521 17.0498 10.2998 17.0498C9.74761 17.0497 9.2998 16.602 9.2998 16.0498ZM12.9004 16.0498V11.5498C12.9005 10.9976 13.3482 10.5498 13.9004 10.5498C14.4524 10.55 14.9003 10.9977 14.9004 11.5498V16.0498C14.9004 16.602 14.4525 17.0496 13.9004 17.0498C13.3481 17.0498 12.9004 16.6021 12.9004 16.0498ZM11.3799 4C10.8595 4 10.5293 4.00107 10.2793 4.02148C10.041 4.04096 9.96458 4.07262 9.93652 4.08691C9.78608 4.1636 9.6636 4.28608 9.58691 4.43652C9.57262 4.46458 9.54096 4.54098 9.52148 4.7793C9.505 4.98112 9.50178 5.23525 9.50098 5.59961H14.6992C14.6984 5.23526 14.6952 4.98112 14.6787 4.7793C14.6592 4.54098 14.6276 4.46458 14.6133 4.43652C14.5366 4.2861 14.4141 4.16362 14.2637 4.08691C14.2356 4.07262 14.1591 4.04096 13.9209 4.02148C13.671 4.00106 13.3407 4 12.8203 4H11.3799ZM19.4004 16.6797C19.4004 17.4193 19.4012 18.0348 19.3604 18.5352C19.3185 19.047 19.2278 19.5264 18.9971 19.9795C18.6424 20.6757 18.076 21.2419 17.3799 21.5967C16.9266 21.8276 16.4466 21.9181 15.9346 21.96C15.4342 22.0008 14.8195 22 14.0801 22H10.1201C9.38075 22 8.76595 22.0008 8.26562 21.96C7.75357 21.9181 7.27355 21.8276 6.82031 21.5967C6.12411 21.2419 5.55786 20.6757 5.20312 19.9795C4.97234 19.5264 4.88169 19.047 4.83984 18.5352C4.79896 18.0348 4.7998 17.4193 4.7998 16.6797V7.59961H4C3.44772 7.59961 3 7.15189 3 6.59961C3.00021 6.0475 3.44785 5.59961 4 5.59961H7.50098C7.50167 5.22789 7.50533 4.89763 7.52832 4.61621C7.5579 4.25433 7.62386 3.88618 7.80566 3.5293C8.07411 3.00244 8.50244 2.57411 9.0293 2.30566C9.38618 2.12386 9.75433 2.0579 10.1162 2.02832C10.4665 1.9997 10.8924 2 11.3799 2H12.8203C13.3077 2 13.7337 1.9997 14.084 2.02832C14.4459 2.05791 14.814 2.12384 15.1709 2.30566C15.6978 2.57411 16.1261 3.00244 16.3945 3.5293C16.5763 3.88616 16.6423 4.25435 16.6719 4.61621C16.6949 4.89763 16.6985 5.22789 16.6992 5.59961H20.2002C20.7523 5.59971 21.2 6.04757 21.2002 6.59961C21.2002 7.15183 20.7524 7.5995 20.2002 7.59961H19.4004V16.6797Z" fill="currentColor"/>
</svg>
