<svg width="24" height="24" viewBox="0 0 24 24" fill="none" xmlns="http://www.w3.org/2000/svg">
<path d="M16.4001 10.2001C16.4001 9.93453 16.5051 9.67964 16.6931 9.49205C16.8809 9.30455 17.1357 9.19967 17.4011 9.20006L19.4802 9.20299L19.989 6.16002L19.9899 6.15904C20.0217 5.97087 19.9847 5.77671 19.8864 5.61315C19.7884 5.45029 19.6359 5.32696 19.4557 5.26647L16.4098 4.30358C16.1942 5.03308 15.8002 5.70516 15.2526 6.25279C14.39 7.11544 13.2197 7.59945 11.9997 7.59947C10.7797 7.59947 9.60943 7.11543 8.74676 6.25279C8.19855 5.70458 7.80311 5.03202 7.58758 4.30162L4.54657 5.25475L4.54754 5.25572C4.36664 5.31608 4.21316 5.43893 4.11493 5.6024C4.01668 5.76591 3.97975 5.95922 4.01141 6.14733L4.01239 6.14928L4.5202 9.19322L6.60321 9.20006C7.15406 9.20205 7.5993 9.64917 7.5993 10.2001V19.2001C7.59941 19.6377 7.96244 19.9999 8.40008 19.9999H15.5993C15.8115 19.9999 16.0157 19.9155 16.1657 19.7655C16.3155 19.6155 16.4 19.4121 16.4001 19.2001V10.2001ZM18.4001 19.2001C18.4 19.9425 18.1047 20.6545 17.5798 21.1796C17.0547 21.7047 16.3419 21.9999 15.5993 21.9999H8.40008C6.85786 21.9999 5.59941 20.7423 5.5993 19.2001V11.1962L4.43524 11.1932V11.1922C3.98534 11.192 3.54988 11.0322 3.20672 10.7411C2.86213 10.4486 2.63256 10.0427 2.56024 9.59654L2.56122 9.59557L2.03973 6.48033L2.00946 6.23229C1.96431 5.65378 2.10007 5.07303 2.40106 4.57213C2.74508 3.9998 3.28217 3.56934 3.91571 3.35826L3.93231 3.3524L8.10028 2.04576C8.40399 1.95053 8.73535 2.00579 8.99188 2.1942C9.24819 2.38263 9.40008 2.68173 9.40008 2.99986C9.40008 3.68943 9.67323 4.35114 10.1608 4.83873C10.6484 5.3263 11.3102 5.59947 11.9997 5.59947C12.6892 5.59945 13.351 5.3263 13.8386 4.83873C14.3261 4.35114 14.5993 3.68941 14.5993 2.99986C14.5993 2.6812 14.7514 2.38158 15.0085 2.19322C15.2656 2.00487 15.5972 1.9507 15.9011 2.04674L20.071 3.36412C20.0758 3.36565 20.0808 3.3674 20.0856 3.369C20.7193 3.58012 21.2572 4.01135 21.6013 4.58385C21.945 5.15624 22.0726 5.83267 21.9616 6.49108L21.4401 9.60729C21.3678 10.0536 21.1394 10.4603 20.7946 10.7528C20.4502 11.045 20.0129 11.2049 19.5612 11.204L18.4001 11.201V19.2001Z" fill="#FF00CD"/>
</svg>
