<svg width="24" height="24" viewBox="0 0 24 24" fill="none" xmlns="http://www.w3.org/2000/svg">
<path d="M8 6.5C8.82843 6.5 9.5 7.17157 9.5 8C9.5 8.82843 8.82843 9.5 8 9.5C7.17157 9.5 6.5 8.82843 6.5 8C6.5 7.17157 7.17157 6.5 8 6.5Z" fill="currentColor"/>
<path d="M11.5322 2.01172C12.1729 2.07568 12.7761 2.35901 13.2354 2.81836L21.0723 10.6562C21.6647 11.2527 21.998 12.0597 21.998 12.9004C21.9979 13.7412 21.6649 14.5481 21.0723 15.1445L15.1445 21.0723C14.5481 21.6649 13.7412 21.9979 12.9004 21.998C12.0597 21.998 11.2527 21.6647 10.6562 21.0723L2.81836 13.2354C2.35901 12.7761 2.07568 12.1729 2.01172 11.5322L1.99707 11.2549V4.79883C1.99707 4.05611 2.29318 3.34354 2.81836 2.81836C3.34354 2.29318 4.05611 1.99707 4.79883 1.99707H11.2549L11.5322 2.01172ZM4.79883 3.99805C4.58654 3.99805 4.38253 4.08231 4.23242 4.23242C4.08231 4.38253 3.99805 4.58654 3.99805 4.79883V11.2549L4.00195 11.334C4.02032 11.5168 4.10136 11.6892 4.23242 11.8203L12.0664 19.6543L12.1523 19.7324C12.3625 19.9035 12.627 19.998 12.9004 19.998C13.2118 19.9979 13.511 19.875 13.7324 19.6562L19.6562 13.7324C19.875 13.511 19.9979 13.2118 19.998 12.9004C19.998 12.5891 19.8749 12.2899 19.6562 12.0684L11.8203 4.23242C11.6892 4.10136 11.5168 4.02032 11.334 4.00195L11.2549 3.99805H4.79883Z" fill="currentColor"/>
</svg>
