<svg width="24" height="24" viewBox="0 0 24 24" fill="none" xmlns="http://www.w3.org/2000/svg">
<path d="M19.7565 5.87988C19.7565 5.35948 19.7555 5.02925 19.735 4.7793C19.7156 4.54098 19.6829 4.46458 19.6686 4.43652C19.5919 4.28615 19.4695 4.16356 19.319 4.08691C19.2907 4.07255 19.2144 4.04089 18.9772 4.02148C18.7272 4.00106 18.3962 4 17.8757 4H17.2565V11.9004H17.8757C18.3962 11.9004 18.7272 11.8993 18.9772 11.8789C19.2151 11.8595 19.2909 11.8268 19.319 11.8125C19.4696 11.7358 19.5919 11.6134 19.6686 11.4629C19.683 11.4347 19.7156 11.3588 19.735 11.1211C19.7555 10.8711 19.7565 10.5401 19.7565 10.0195V5.87988ZM10.9558 18.7803C10.9558 19.3976 11.4152 19.9067 12.0104 19.9873L14.9626 13.3486C15.0351 13.1855 15.1258 12.9709 15.2565 12.7646V4H8.26239C7.58957 4 7.1402 4.00081 6.79169 4.02734C6.45593 4.05293 6.28772 4.0983 6.17059 4.15137C5.87588 4.28494 5.62572 4.50049 5.44891 4.77148C5.37867 4.87921 5.30747 5.0382 5.23114 5.36621C5.15194 5.70663 5.08344 6.1505 4.98114 6.81543L4.51044 9.875C4.37587 10.7497 4.2852 11.3428 4.25458 11.8018C4.22463 12.2509 4.26207 12.4662 4.31513 12.6055C4.45574 12.9741 4.72018 13.2825 5.06317 13.4775C5.19272 13.5512 5.39971 13.6205 5.84833 13.6592C6.3066 13.6987 6.90661 13.7002 7.79169 13.7002H8.5163C8.75158 13.7002 8.98808 13.6995 9.18817 13.7158C9.34706 13.7288 9.53206 13.7548 9.72431 13.8232L9.91864 13.9072L10.0495 13.9805C10.3471 14.163 10.5893 14.4246 10.7487 14.7373C10.8816 14.998 10.9228 15.2559 10.9401 15.4678C10.9565 15.6679 10.9558 15.9044 10.9558 16.1396V18.7803ZM21.7565 10.0195C21.7565 10.5069 21.7568 10.933 21.7282 11.2832C21.6986 11.6452 21.6327 12.0141 21.4509 12.3711C21.1824 12.8979 20.7541 13.3263 20.2272 13.5947C19.8702 13.7766 19.5013 13.8425 19.1393 13.8721C18.7891 13.9007 18.363 13.9004 17.8757 13.9004H16.9802C16.9517 13.9008 16.9278 13.9017 16.9079 13.9023C16.8992 13.9204 16.8886 13.9417 16.8766 13.9678C16.8523 14.0206 16.8248 14.0821 16.7897 14.1611L13.7653 20.9668C13.4861 21.595 12.863 21.9999 12.1755 22C10.3975 22 8.95575 20.5582 8.95575 18.7803V16.1396C8.95575 15.9317 8.9539 15.8002 8.94989 15.7051C8.85479 15.7011 8.72344 15.7002 8.5163 15.7002H7.79169C6.94206 15.7002 6.24073 15.701 5.67645 15.6523C5.10257 15.6028 4.56502 15.4961 4.07391 15.2168C3.32747 14.7923 2.75201 14.1207 2.44598 13.3184C2.24474 12.7906 2.22114 12.2436 2.25946 11.6689C2.29715 11.1038 2.40469 10.411 2.53388 9.57129L3.00458 6.51074C3.10225 5.87591 3.18345 5.34468 3.28388 4.91309C3.38717 4.46917 3.52574 4.05841 3.77411 3.67773C4.15895 3.08811 4.70407 2.6207 5.3454 2.33008C5.75942 2.14248 6.18586 2.0678 6.64032 2.0332C7.08226 1.99957 7.6199 2 8.26239 2H17.8757C18.363 2 18.7891 1.99973 19.1393 2.02832C19.5013 2.0579 19.8702 2.12377 20.2272 2.30566C20.754 2.57411 21.1824 3.0025 21.4509 3.5293C21.6326 3.88613 21.6986 4.25438 21.7282 4.61621C21.7568 4.9665 21.7565 5.39239 21.7565 5.87988V10.0195Z" fill="currentColor"/>
</svg>
