<svg width="24" height="24" viewBox="0 0 24 24" fill="none" xmlns="http://www.w3.org/2000/svg">
<path d="M15.0082 2.1937C15.2652 2.00539 15.597 1.95128 15.9008 2.04721L20.0707 3.3646C20.0755 3.3661 20.0806 3.36789 20.0854 3.36948C20.719 3.58059 21.257 4.01182 21.601 4.58432C21.9447 5.15669 22.0724 5.83317 21.9614 6.49155L21.4399 9.60776C21.3675 10.0539 21.139 10.4608 20.7944 10.7533C20.45 11.0453 20.0124 11.2054 19.561 11.2044L18.3998 11.2015V19.2005C18.3997 19.9428 18.1043 20.6551 17.5795 21.18C17.0544 21.7049 16.3415 22.0003 15.599 22.0003H8.39983C6.85788 22.0001 5.59933 20.7425 5.59905 19.2005V11.1966L4.43499 11.1937C3.98522 11.1934 3.54953 11.0326 3.20647 10.7415C2.86197 10.4491 2.63235 10.0431 2.55999 9.59702L2.56096 9.59604L2.03948 6.48081L2.0092 6.23276C1.96406 5.65441 2.09999 5.07341 2.40081 4.5726C2.74475 4.0004 3.2821 3.56986 3.91545 3.35874L3.93206 3.35288L8.10002 2.04624C8.4037 1.95101 8.7351 2.00631 8.99163 2.19467C9.24794 2.3831 9.39983 2.6822 9.39983 3.00034C9.39992 3.68977 9.67307 4.35169 10.1606 4.83921C10.6481 5.32668 11.31 5.59985 11.9994 5.59995C12.6888 5.59992 13.3508 5.32656 13.8383 4.83921C14.3258 4.35169 14.599 3.68976 14.599 3.00034C14.599 2.68184 14.7514 2.38207 15.0082 2.1937Z" fill="currentColor"/>
</svg>
