<svg width="24" height="24" viewBox="0 0 24 24" fill="none" xmlns="http://www.w3.org/2000/svg">
<path d="M13.0232 5.21973C13.0232 4.6018 12.5636 4.09161 11.9675 4.01172L8.87476 10.9717C8.83189 11.0681 8.78025 11.1589 8.72339 11.2451V20H17.1072C17.9461 19.9999 18.6592 19.3878 18.7869 18.5586L19.7566 12.2588C19.915 11.229 19.1178 10.2998 18.0759 10.2998H14.9236C13.8744 10.2998 13.0234 9.44955 13.0232 8.40039V5.21973ZM4.22339 19.2002C4.22349 19.6419 4.58152 19.9999 5.02319 20H6.72339V12.0996H5.02319C4.58146 12.0997 4.22339 12.4586 4.22339 12.9004V19.2002ZM15.0232 8.2998H18.0759C20.3436 8.2998 22.0779 10.3212 21.7332 12.5625L20.7644 18.8623C20.4867 20.6672 18.9333 21.9999 17.1072 22H5.02319C3.47695 21.9999 2.22349 20.7464 2.22339 19.2002V12.9004C2.22339 11.3541 3.47689 10.0997 5.02319 10.0996H7.07397L10.2146 3.0332L10.2703 2.91797C10.5713 2.35574 11.1598 2 11.8044 2L11.9695 2.00391C13.6706 2.08996 15.0232 3.49723 15.0232 5.21973V8.2998Z" fill="currentColor"/>
</svg>
