<svg width="24" height="24" viewBox="0 0 24 24" fill="none" xmlns="http://www.w3.org/2000/svg">
<path d="M13.7998 2C15.0148 2 16 2.98517 16 4.2002V7H19.7998C21.0148 7 22 7.98517 22 9.2002V19.7998C22 21.0148 21.0148 22 19.7998 22H4.2002C2.98517 22 2 21.0148 2 19.7998V14.2002C2 12.9852 2.98517 12 4.2002 12H8V4.2002C8 2.98517 8.98517 2 10.2002 2H13.7998ZM4.2002 14C4.08974 14 4 14.0897 4 14.2002V19.7998C4 19.9103 4.08974 20 4.2002 20H8V14H4.2002ZM10.2002 4C10.0897 4 10 4.08974 10 4.2002V20H14V4.2002C14 4.08974 13.9103 4 13.7998 4H10.2002ZM16 20H19.7998C19.9103 20 20 19.9103 20 19.7998V9.2002C20 9.08974 19.9103 9 19.7998 9H16V20Z" fill="#FF00CD"/>
</svg>
