<svg width="24" height="24" viewBox="0 0 24 24" fill="none" xmlns="http://www.w3.org/2000/svg">
<path d="M21 12.125C21.5523 12.125 22 12.5279 22 13.025V16.0625C21.9999 18.2371 20.0412 20 17.625 20H6.375C3.95879 20 2.00006 18.2371 2 16.0625V13.025C2 12.5279 2.44772 12.125 3 12.125C3.55228 12.125 4 12.5279 4 13.025V16.0625C4.00006 17.243 5.06336 18.2 6.375 18.2H17.625C18.9366 18.2 19.9999 17.243 20 16.0625V13.025C20 12.5279 20.4477 12.125 21 12.125Z" fill="#FF00CD"/>
<path d="M11.293 2.2636C11.6835 1.91214 12.3165 1.91213 12.707 2.2636L17.207 6.31361C17.5975 6.66509 17.5975 7.23482 17.207 7.58628C16.8165 7.93773 16.1835 7.9377 15.793 7.58628L13 5.07259V13.025C12.9999 13.522 12.5522 13.925 12 13.925C11.4478 13.925 11.0001 13.522 11 13.025V5.07259L8.20703 7.58628C7.81653 7.93773 7.1835 7.9377 6.79297 7.58628C6.40244 7.2348 6.40244 6.66509 6.79297 6.31361L11.293 2.2636Z" fill="#FF00CD"/>
</svg>
