<svg width="24" height="24" viewBox="0 0 24 24" fill="none" xmlns="http://www.w3.org/2000/svg">
<path d="M18.6797 3.00488C20.5292 3.09842 22 4.62727 22 6.5V17.5C22 19.433 20.433 21 18.5 21H5.5C3.62727 21 2.09842 19.5292 2.00488 17.6797L2 17.5V6.5C2 4.62727 3.47083 3.09842 5.32031 3.00488L5.5 3H18.5L18.6797 3.00488ZM4 17.5C4 18.3284 4.67157 19 5.5 19H18.5C19.3284 19 20 18.3284 20 17.5V9.5H4V17.5ZM9.5 7.5H20V6.5C20 5.67157 19.3284 5 18.5 5H9.5V7.5ZM5.5 5C4.67157 5 4 5.67157 4 6.5V7.5H7.5V5H5.5Z" fill="currentColor"/>
</svg>
